# xmcd
#
# Track frame offsets:
#	150
#	15139
#	24425
#	38047
#	55031
#	69812
#	80839
#	94438
#	108791
#	129069
#	142768
#	158886
#	167125
#	181527
#	196922
#	215280
#	231758
#	248249
#
# Disc length: 3495 seconds
#
# Revision: 1
# Processed by: cddbd v1.5.2PL0 Copyright (c) Steve Scherf et al.
# Submitted via: EZCDAudioConverter 2.1.7.1
#
DISCID=d20da512
DTITLE=V/A - Good God! A Gospel Funk Hymnal
DYEAR=2006
DGENRE=
TTITLE0=Preacher and The Saints - Jesus Rhapsody (Part 1)
TTITLE1=5 Spiritual Tones - Bad Situation
TTITLE2=Mighty Walker Brothers - God Been Good To Me
TTITLE3=Masonic Wonders - I Call Him
TTITLE4=Mighty Voices Of Wonder - I Thank The Lord
TTITLE5=Voices Of Conquest - O Yes My Lord
TTITLE6=Gospel Comforters - Jesus Will Help Me
TTITLE7=Horace Family - God Will Dry My Weeping Eyes
TTITLE8=Trevor Dandy - Is There Any Love
TTITLE9=Sam Taylor - Heaven On Their Minds
TTITLE10=Triumphs - We Don't Love Enough
TTITLE11=Brother John Witherspoon - That's Enough
TTITLE12=Shackleford Singers - God Is All Over Me
TTITLE13=Cliff Gober - A Poor Wayfaring Stranger
TTITLE14=Universal Jubileers - Childhood Days
TTITLE15=Modulations - This Old World Is Going Down
TTITLE16=Apostles Of Music - Look Where He Brought Us
TTITLE17=LaVice and Company - Thoughs Were The Days
EXTD=
EXTT0=
EXTT1=
EXTT2=
EXTT3=
EXTT4=
EXTT5=
EXTT6=
EXTT7=
EXTT8=
EXTT9=
EXTT10=
EXTT11=
EXTT12=
EXTT13=
EXTT14=
EXTT15=
EXTT16=
EXTT17=
PLAYORDER=
